<?xml version="1.0" encoding="UTF-8" standalone="no"?>
<svg width="6230px" height="1600px" viewBox="0 0 6230 1600" version="1.1" xmlns="http://www.w3.org/2000/svg" xmlns:xlink="http://www.w3.org/1999/xlink">
    <!-- Generator: sketchtool 3.8.3 (29802) - http://www.bohemiancoding.com/sketch -->
    <title>logo</title>
    <desc>Created with sketchtool.</desc>
    <defs></defs>
    <g id="Page-1" stroke="none" stroke-width="1" fill="none" fill-rule="evenodd">
        <g id="logo" fill="#4A4A4A">
            <path d="M681.016228,770.611862 L253.227388,920.155198 L1289.67148,1600 L1216.34929,357.673214 L878.085788,654.661454 L500.034523,-0.142545168 L302.024353,114.17868 L681.016228,770.611862 Z" id="Combined-Shape"></path>
            <path d="M1765.95531,1086.96262 C1724.08594,1041.60413 1703.15157,972.34626 1703.15157,879.186916 C1703.15157,786.027572 1723.73704,715.374073 1764.90858,667.224299 C1806.08013,619.074526 1864.69636,595 1940.75905,595 C2088.69748,595 2162.66559,686.06451 2162.66559,868.196262 C2162.66559,874.476667 2158.47872,883.199321 2150.10484,894.364486 C2141.73097,905.529651 2134.40394,911.11215 2128.12354,911.11215 L1797.35718,911.11215 C1801.54412,969.031442 1816.54708,1011.59799 1842.36653,1038.81308 C1868.18597,1066.02817 1906.91455,1079.63551 1958.55344,1079.63551 C2006.00539,1079.63551 2049.61866,1068.47052 2089.39456,1046.14019 C2102.6532,1039.16196 2109.98023,1035.6729 2111.37587,1035.6729 C2118.3541,1035.6729 2126.20449,1042.65102 2134.92727,1056.60748 C2143.65006,1070.56393 2148.01139,1081.03112 2148.01139,1088.00935 C2148.01139,1101.9658 2128.996,1116.61986 2090.96466,1131.97196 C2052.93331,1147.32406 2009.14559,1155 1959.60017,1155 C1872.37232,1155 1807.82468,1132.3211 1765.95531,1086.96262 L1765.95531,1086.96262 Z M2069.50671,835.747664 C2069.50671,725.491661 2027.63797,670.364486 1943.89924,670.364486 C1853.88009,670.364486 1805.03323,725.491661 1797.35718,835.747664 L2069.50671,835.747664 Z M2303.974,1127.78505 L2303.974,760.383178 C2303.974,717.815987 2302.22947,687.46115 2298.74036,669.317757 C2293.8556,644.196136 2291.41326,630.588796 2291.41326,628.495327 C2291.41326,620.121453 2298.04247,614.015596 2311.30111,610.17757 C2324.55974,606.339545 2334.85247,604.420561 2342.17961,604.420561 C2349.50675,604.420561 2354.56589,605.118373 2357.35718,606.514019 C2360.14847,607.909664 2362.76527,610.177554 2365.20765,613.317757 C2367.65003,616.45796 2369.56901,619.598115 2370.96466,622.738318 C2372.3603,625.87852 2373.75593,630.065394 2375.15157,635.299065 C2376.54722,640.532736 2377.76839,644.71961 2378.81512,647.859813 C2379.86186,651.000016 2380.90858,655.535796 2381.95531,661.46729 C2383.00205,667.398784 2383.87431,671.411204 2384.57213,673.504673 C2421.55674,621.167963 2462.02986,595 2505.99269,595 C2525.53173,595 2540.5347,598.837968 2551.00204,606.514019 C2561.46938,614.19007 2566.70297,623.959442 2566.70297,635.82243 C2566.70297,647.685418 2564.60954,660.071587 2560.4226,672.981308 C2556.23566,685.89103 2551.35098,692.345794 2545.7684,692.345794 C2542.9771,692.345794 2536.17343,690.42681 2525.35718,686.588785 C2514.54093,682.75076 2501.6314,680.831776 2486.62821,680.831776 C2471.62502,680.831776 2456.09869,686.239821 2440.04877,697.056075 C2423.99884,707.872328 2412.13603,718.513966 2404.45998,728.981308 L2391.89924,744.682243 L2391.89924,1127.78505 C2391.89924,1143.13715 2377.94299,1150.81308 2350.03008,1150.81308 L2345.84316,1150.81308 C2317.93025,1150.81308 2303.974,1143.13715 2303.974,1127.78505 L2303.974,1127.78505 Z M2687.07681,1127.78505 L2687.07681,760.383178 C2687.07681,717.815987 2685.33228,687.46115 2681.84316,669.317757 C2676.9584,644.196136 2674.51606,630.588796 2674.51606,628.495327 C2674.51606,620.121453 2681.14528,614.015596 2694.40391,610.17757 C2707.66254,606.339545 2717.95527,604.420561 2725.28241,604.420561 C2732.60955,604.420561 2737.66869,605.118373 2740.45998,606.514019 C2743.25128,607.909664 2745.86807,610.177554 2748.31045,613.317757 C2750.75283,616.45796 2752.67182,619.598115 2754.06746,622.738318 C2755.46311,625.87852 2756.85873,630.065394 2758.25438,635.299065 C2759.65002,640.532736 2760.87119,644.71961 2761.91793,647.859813 C2762.96466,651.000016 2764.01138,655.535796 2765.05811,661.46729 C2766.10485,667.398784 2766.97711,671.411204 2767.67494,673.504673 C2804.65955,621.167963 2845.13266,595 2889.0955,595 C2908.63454,595 2923.6375,598.837968 2934.10484,606.514019 C2944.57219,614.19007 2949.80578,623.959442 2949.80578,635.82243 C2949.80578,647.685418 2947.71234,660.071587 2943.5254,672.981308 C2939.33847,685.89103 2934.45378,692.345794 2928.8712,692.345794 C2926.07991,692.345794 2919.27624,690.42681 2908.45998,686.588785 C2897.64373,682.75076 2884.7342,680.831776 2869.73101,680.831776 C2854.72782,680.831776 2839.2015,686.239821 2823.15157,697.056075 C2807.10165,707.872328 2795.23884,718.513966 2787.56279,728.981308 L2775.00204,744.682243 L2775.00204,1127.78505 C2775.00204,1143.13715 2761.04579,1150.81308 2733.13288,1150.81308 L2728.94597,1150.81308 C2701.03305,1150.81308 2687.07681,1143.13715 2687.07681,1127.78505 L2687.07681,1127.78505 Z M3095.82447,1083.82243 C3054.30401,1036.37048 3033.5441,967.461511 3033.5441,877.093458 C3033.5441,786.725405 3054.47847,717.118624 3096.34783,668.271028 C3138.2172,619.423432 3197.88016,595 3275.33849,595 C3352.79682,595 3411.93642,619.248979 3452.75905,667.747664 C3493.58168,716.246348 3513.99269,786.027582 3513.99269,877.093458 C3513.99269,968.159334 3493.93059,1037.24276 3453.80578,1084.34579 C3413.68097,1131.44883 3354.36692,1155 3275.86185,1155 C3197.35679,1155 3137.34493,1131.27438 3095.82447,1083.82243 L3095.82447,1083.82243 Z M3273.24503,1079.63551 C3324.1861,1079.63551 3361.86796,1063.06247 3386.29176,1029.91589 C3410.71556,996.769305 3422.92727,945.305645 3422.92727,875.523364 C3422.92727,805.741084 3410.71556,754.102971 3386.29176,720.607477 C3361.86796,687.111982 3324.1861,670.364486 3273.24503,670.364486 C3222.30397,670.364486 3184.97101,686.937529 3161.24503,720.084112 C3137.51906,753.230695 3125.65625,804.868808 3125.65625,875 C3125.65625,945.131192 3137.51906,996.769305 3161.24503,1029.91589 C3184.97101,1063.06247 3222.30397,1079.63551 3273.24503,1079.63551 L3273.24503,1079.63551 Z M3665.7684,1127.78505 L3665.7684,760.383178 C3665.7684,717.815987 3664.02386,687.46115 3660.53475,669.317757 C3655.64999,644.196136 3653.20765,630.588796 3653.20765,628.495327 C3653.20765,620.121453 3659.83686,614.015596 3673.0955,610.17757 C3686.35413,606.339545 3696.64686,604.420561 3703.974,604.420561 C3711.30114,604.420561 3716.36028,605.118373 3719.15157,606.514019 C3721.94286,607.909664 3724.55966,610.177554 3727.00204,613.317757 C3729.44442,616.45796 3731.3634,619.598115 3732.75905,622.738318 C3734.1547,625.87852 3735.55032,630.065394 3736.94597,635.299065 C3738.34161,640.532736 3739.56278,644.71961 3740.60952,647.859813 C3741.65625,651.000016 3742.70297,655.535796 3743.7497,661.46729 C3744.79644,667.398784 3745.6687,671.411204 3746.36653,673.504673 C3783.35113,621.167963 3823.82425,595 3867.78709,595 C3887.32613,595 3902.32909,598.837968 3912.79643,606.514019 C3923.26377,614.19007 3928.49737,623.959442 3928.49737,635.82243 C3928.49737,647.685418 3926.40393,660.071587 3922.21699,672.981308 C3918.03006,685.89103 3913.14537,692.345794 3907.56279,692.345794 C3904.7715,692.345794 3897.96783,690.42681 3887.15157,686.588785 C3876.33532,682.75076 3863.42579,680.831776 3848.4226,680.831776 C3833.41941,680.831776 3817.89309,686.239821 3801.84316,697.056075 C3785.79324,707.872328 3773.93043,718.513966 3766.25438,728.981308 L3753.69363,744.682243 L3753.69363,1127.78505 C3753.69363,1143.13715 3739.73738,1150.81308 3711.82447,1150.81308 L3707.63755,1150.81308 C3679.72464,1150.81308 3665.7684,1143.13715 3665.7684,1127.78505 L3665.7684,1127.78505 Z M4235.54035,1098.76627 C4235.54035,1090.44067 4240.4836,1078.08254 4250.37025,1061.69151 C4260.2569,1045.30049 4269.36289,1037.1051 4277.68849,1037.1051 C4279.24955,1037.1051 4284.97331,1039.44664 4294.85996,1044.12979 C4324.51992,1057.13854 4353.78917,1063.64282 4382.6686,1063.64282 C4411.54802,1063.64282 4433.53249,1056.48811 4448.62264,1042.17848 C4463.71279,1027.86886 4471.25775,1007.31534 4471.25775,980.517308 C4471.25775,953.71928 4463.71279,933.035675 4448.62264,918.465873 C4433.53249,903.896071 4408.55606,896.61128 4373.6926,896.61128 L4288.61579,896.61128 C4277.68844,896.61128 4270.14348,894.269739 4265.98068,889.586589 C4261.81788,884.903438 4259.73651,876.838133 4259.73651,865.390432 L4274.56641,633.575636 C4275.60711,622.648285 4278.59908,614.713065 4283.5424,609.76974 C4288.48573,604.826414 4296.42095,602.354788 4307.3483,602.354788 L4537.60205,602.354788 C4553.21256,602.354788 4561.01769,615.363345 4561.01769,641.380848 L4561.01769,662.454921 C4561.01769,683.268923 4553.21256,693.675768 4537.60205,693.675768 L4379.93677,693.675768 L4372.13156,805.2903 L4392.42511,805.2903 C4455.90782,805.2903 4504.42973,818.559027 4537.99231,845.096881 C4571.55489,871.634734 4588.33593,916.64434 4588.33593,980.127048 C4588.33593,1011.8684 4582.48208,1039.44654 4570.7742,1062.86229 C4559.06633,1086.27805 4543.32597,1104.49003 4523.55267,1117.49878 C4485.56712,1142.47558 4442.63888,1154.9638 4394.76667,1154.9638 C4346.89447,1154.9638 4308.38914,1149.5002 4279.24954,1138.57285 C4250.10993,1127.6455 4235.54035,1114.37677 4235.54035,1098.76627 L4235.54035,1098.76627 Z M4831.85854,1154.9638 C4774.09969,1154.9638 4728.82991,1130.24754 4696.04786,1080.81428 C4663.2658,1031.38103 4646.87502,962.956018 4646.87502,875.537207 C4646.87502,788.118396 4663.2658,719.693389 4696.04786,670.260133 C4728.82991,620.826876 4774.09969,596.110619 4831.85854,596.110619 C4889.6174,596.110619 4934.88718,620.826876 4967.66923,670.260133 C5000.45129,719.693389 5016.84207,788.118396 5016.84207,875.537207 C5016.84207,962.956018 5000.45129,1031.38103 4967.66923,1080.81428 C4934.88718,1130.24754 4889.6174,1154.9638 4831.85854,1154.9638 L4831.85854,1154.9638 Z M4831.85854,1063.64282 C4877.129,1063.64282 4899.76389,1000.94157 4899.76389,875.537207 C4899.76389,750.132841 4877.129,687.431599 4831.85854,687.431599 C4786.58809,687.431599 4763.9532,750.132841 4763.9532,875.537207 C4763.9532,1000.94157 4786.58809,1063.64282 4831.85854,1063.64282 L4831.85854,1063.64282 Z M5066.79542,951.247763 C5066.79542,895.049956 5076.16159,844.706842 5094.89419,800.216912 C5113.62679,755.726981 5135.61125,721.384392 5160.84823,697.188114 C5186.08521,672.991836 5213.01292,652.958659 5241.63217,637.087982 C5270.25143,621.217305 5293.0164,610.940545 5309.92778,606.257394 C5326.83915,601.574244 5337.89643,599.232704 5343.09993,599.232704 C5354.54763,599.232704 5363.91379,607.167923 5371.19869,623.0386 C5378.48359,638.909277 5382.12599,651.13732 5382.12599,659.723096 C5382.12599,668.308872 5381.47556,673.642381 5380.17469,675.723781 C5378.87381,677.805181 5376.14201,679.366208 5371.97921,680.406908 C5310.57791,698.61916 5263.22676,731.660894 5229.92436,779.5331 C5218.47665,796.184302 5209.37066,814.396281 5202.60611,834.169584 C5226.54222,821.160832 5249.56736,814.656554 5271.68224,814.656554 C5293.79712,814.656554 5313.04978,817.518436 5329.44081,823.242287 C5345.83183,828.966138 5362.22262,837.811956 5378.61364,849.780008 C5395.00467,861.748059 5408.40348,879.04944 5418.81048,901.684667 C5429.21749,924.319895 5434.42091,950.597179 5434.42091,980.517308 C5434.42091,1010.43744 5429.0874,1037.10498 5418.42022,1060.52073 C5407.75305,1083.93648 5393.31355,1102.40863 5375.1013,1115.93774 C5339.71749,1141.95524 5298.35028,1154.9638 5250.99843,1154.9638 C5203.12622,1154.9638 5161.49884,1139.87387 5126.11504,1109.69357 C5107.90278,1094.60341 5093.46329,1073.39947 5082.79611,1046.08109 C5072.12893,1018.76271 5066.79542,987.151918 5066.79542,951.247763 L5066.79542,951.247763 Z M5251.77895,1063.64282 C5270.51155,1063.64282 5286.2519,1056.09785 5299.00048,1041.0077 C5311.74906,1025.91755 5318.12325,1006.5348 5318.12325,982.858872 C5318.12325,959.182944 5311.87914,940.450622 5299.39074,926.661346 C5286.90234,912.872069 5270.38147,905.977534 5249.82765,905.977534 C5229.27382,905.977534 5207.8097,912.221641 5185.43465,924.710043 C5184.9143,932.515294 5184.65413,944.483166 5184.65413,960.614018 C5184.65413,1029.30023 5207.02884,1063.64282 5251.77895,1063.64282 L5251.77895,1063.64282 Z" id="error-506"></path>
            <rect id="Rectangle-3" x="5850" y="400" width="100" height="950"></rect>
            <rect id="Rectangle-3-Copy" x="5650" y="1300" width="200" height="100"></rect>
            <rect id="Rectangle-3-Copy-3" x="5650" y="300" width="200" height="100"></rect>
            <rect id="Rectangle-3-Copy-2" x="5950" y="1300" width="200" height="100"></rect>
            <rect id="Rectangle-3-Copy-4" x="5950" y="300" width="200" height="100"></rect>
        </g>
    </g>
</svg>