<?xml version="1.0" encoding="UTF-8" standalone="no"?>
<svg width="1600px" height="1600px" viewBox="0 0 1600 1600" version="1.1" xmlns="http://www.w3.org/2000/svg" xmlns:xlink="http://www.w3.org/1999/xlink">
    <!-- Generator: sketchtool 3.8.3 (29802) - http://www.bohemiancoding.com/sketch -->
    <title>foro</title>
    <desc>Created with sketchtool.</desc>
    <defs></defs>
    <g id="Page-1" stroke="none" stroke-width="1" fill="none" fill-rule="evenodd">
        <g id="foro" fill="#4A4A4A">
            <path d="M990.477229,770.611862 L611.485354,114.17868 L809.495524,-0.142545168 L1187.54679,654.661454 L1525.81029,357.673214 L1599.13248,1600 L776.732803,1060.55542 C764.311926,1093.19714 747.168913,1121.95043 724.99052,1146.88412 C670.66464,1207.95907 594.485352,1242.15787 497.354924,1250.76576 C426.539834,1324.397 285.909656,1471.65946 285.909656,1471.65946 L199.871874,1561.11876 L199.871874,1437 C199.871874,1437 200.025116,1227.15787 200.02511,1227.15784 C137.17056,1204.59688 88.8647193,1168.68378 55.3795531,1118.99868 C17.5381394,1062.84981 4.54747351e-13,991.325836 4.54747351e-13,903.26087 C4.54747351e-13,787.252157 30.64316,699.322747 97.3808014,639.131989 C164.675603,578.438727 264.622764,550 401,550 C537.377236,550 637.324397,578.438727 704.619199,639.131989 C758.167535,687.427298 788.478283,753.580721 798.367406,837.768228 L990.477229,770.611862 Z M451.509976,1155.21286 L299.871874,1312.75937 L299.871874,1151.33033 L262.265406,1141.70852 C203.487918,1126.67001 163.66114,1100.73486 138.304859,1063.11135 C112.854055,1025.34759 100,972.926237 100,903.26087 C100,813.237471 121.246726,752.270781 164.355238,713.391162 C210.446163,671.821702 287.137963,650 401,650 C514.862037,650 591.553837,671.821702 637.644762,713.391162 C680.753274,752.270781 702,813.237471 702,903.26087 C702,984.151584 684.750296,1041.66089 650.27209,1080.42243 C614.608352,1120.51678 556.455788,1145.14361 469.93892,1153.44466 L451.509976,1155.21286 Z" id="Combined-Shape"></path>
        </g>
    </g>
</svg>